General
Complete name                    : Arven.mkv
Format                           : Matroska
File size                        : 1.67 GiB
Duration                         : 1h 50mn
Overall bit rate                 : 2 173 Kbps


Video
ID                               : 1
Format                           : AVC

Duration                         : 1h 50mn
Bit rate                         : 1 554 Kbps
Nominal bit rate                 : 1 573 Kbps
Width                            : 720 pixels
Height                           : 550 pixels
Display aspect ratio             : 1.862
Frame rate                       : 25.000 fps
Resolution                       : 8 bits
Colorimetry                      : 4:2:0
Scan type                        : Progressive
Bits/(Pixel*Frame)               : 0.157
Stream size                      : 1.20 GiB (72%)
Writing library                  : x264 core 79


Audio #1
ID                               : Film
Format                           : AC-3
Format/Info                      : Audio Coding 3
Codec ID                         : A_AC3
Duration                         : 1h 50mn
Bit rate mode                    : Constant
Bit rate                         : 448 Kbps
Channel(s)                       : 6 channels
Channel positions                : Front: L C R, Surround: L R, LFE
Sampling rate                    : 48.0 KHz
Stream size                      : 354 MiB (21%)
Language                         : Danish

Audio #2
ID                               : Directors Commentary
Format                           : MPEG Audio
Format version                   : Version 1
Format profile                   : Layer 3
Mode                             : Joint stereo
Codec ID                         : A_MPEG/L3
Codec ID/Hint                    : MP3
Duration                         : 1h 50mn
Bit rate mode                    : Constant
Bit rate                         : 128 Kbps
Channel(s)                       : 2 channels
Sampling rate                    : 48.0 KHz
Stream size                      : 101 MiB (6%)
Writing library                  : LAME3.98
Language                         : Danish

Text #1
Language                         : Danish

Text #2
Language                         : Danish

Text #3
Language                         : Swedish

Text #4
Language                         : Norwegian

Text #5
Language                         : English


